<svg xmlns="http://www.w3.org/2000/svg" width="752" height="80"><svg width="65" height="32" viewBox="0 0 65 32"><path fill="#2196f3" d="M10.016 10.049h-.002c-1.827 0-3.308 1.316-3.308 2.94v.002c0 1.624 1.481 2.94 3.308 2.94h.002c1.827 0 3.308-1.316 3.308-2.94v-.002c0-1.624-1.481-2.94-3.308-2.94zM34.434 9.11c-.005-2.255-1.015-4.417-2.81-6.012S27.398.605 24.86.6c-2.538.004-4.972.902-6.767 2.497s-2.806 3.757-2.811 6.013v12.437s19.149-1.895 19.151-12.434v-.002zM0 25.628c.005 1.569.708 3.073 1.956 4.183s2.94 1.735 4.706 1.74c1.765-.005 3.457-.63 4.705-1.739s1.952-2.613 1.957-4.182v-8.653S-.001 18.297-.001 25.629zm6.662 1.55c-.345 0-.682-.091-.969-.261s-.511-.413-.643-.696-.167-.595-.099-.896.233-.577.477-.794c.244-.217.555-.364.893-.424s.689-.029 1.008.088c.319.117.591.316.783.571s.294.555.294.861c.001.204-.044.406-.131.595s-.216.36-.378.505c-.162.145-.355.259-.567.338s-.439.119-.669.119v-.006zM18.842 24.402v3.25h-.67v-3.25h.67zm1.295 1.389v.522h-1.478v-.522h1.478zm.156-1.389v.525h-1.634v-.525h1.634zm3.058 1.55v.154c0 .247-.033.469-.1.665s-.161.364-.284.502a1.228 1.228 0 0 1-.438.315 1.392 1.392 0 0 1-.56.109c-.204 0-.391-.036-.56-.109a1.264 1.264 0 0 1-.438-.315 1.471 1.471 0 0 1-.288-.502 2.05 2.05 0 0 1-.101-.665v-.154c0-.248.034-.47.101-.665.067-.196.161-.364.283-.502.123-.138.269-.244.438-.317.17-.073.356-.109.56-.109.205 0 .392.037.56.109.17.073.316.179.438.317.123.138.219.306.286.502.068.195.103.417.103.665zm-.676.154v-.158c0-.173-.016-.324-.047-.455s-.077-.241-.138-.33a.601.601 0 0 0-.524-.27.636.636 0 0 0-.301.069.611.611 0 0 0-.221.201c-.059.089-.105.199-.136.33s-.047.283-.047.455v.158c0 .171.016.323.047.455.031.131.077.242.138.333.061.089.135.157.223.203s.188.069.301.069c.113 0 .213-.023.301-.069s.161-.114.221-.203c.059-.091.105-.202.136-.333.031-.132.047-.284.047-.455zm2.85.696a.425.425 0 0 0-.027-.156.295.295 0 0 0-.094-.13c-.046-.04-.111-.08-.194-.118s-.191-.079-.324-.121a4.161 4.161 0 0 1-.42-.161 1.688 1.688 0 0 1-.348-.208.938.938 0 0 1-.237-.279.763.763 0 0 1-.085-.368c0-.135.03-.258.089-.368a.842.842 0 0 1 .25-.286c.107-.08.234-.142.379-.185.147-.043.309-.065.484-.065.24 0 .449.043.627.129s.317.205.415.355c.1.15.15.322.15.516h-.665a.505.505 0 0 0-.06-.25.409.409 0 0 0-.179-.172.634.634 0 0 0-.299-.062.686.686 0 0 0-.29.054.386.386 0 0 0-.174.141.342.342 0 0 0-.058.196c0 .055.013.105.04.15.028.045.07.086.125.125s.123.075.203.109c.08.034.173.068.279.1.177.054.333.114.466.181.135.067.249.142.339.225s.159.178.205.284a.891.891 0 0 1 .069.359.793.793 0 0 1-.322.663 1.101 1.101 0 0 1-.373.176c-.144.04-.306.06-.484.06a1.86 1.86 0 0 1-.475-.062 1.449 1.449 0 0 1-.426-.194c-.126-.086-.228-.196-.304-.33s-.114-.292-.114-.475h.672c0 .101.016.187.047.257s.075.126.132.17a.585.585 0 0 0 .205.094c.08.019.168.029.263.029a.713.713 0 0 0 .286-.049.349.349 0 0 0 .223-.332zm2.578-2.4v3.25h-.667v-3.25h.667zm1 0v.525h-2.652v-.525h2.652zm2.563 2.728v.522h-1.73v-.522h1.73zm-1.512-2.728v3.25h-.67v-3.25h.67zm1.286 1.324v.509h-1.504v-.509h1.504zm.223-1.324v.525h-1.728v-.525h1.728zm.393 0h1.212c.249 0 .462.037.641.112.18.074.318.185.415.33s.145.325.145.538c0 .174-.03.324-.089.449a.842.842 0 0 1-.248.31c-.106.082-.23.147-.373.197l-.212.112h-1.054l-.004-.522h.783c.118 0 .215-.021.292-.062s.135-.1.174-.174a.538.538 0 0 0 .06-.259c0-.104-.019-.194-.058-.27s-.097-.134-.176-.174a.654.654 0 0 0-.297-.06h-.542v2.725h-.67v-3.25zm1.817 3.25-.741-1.449.708-.005.75 1.422v.031h-.717zm3.516-1.158h-.828v-.522h.828a.692.692 0 0 0 .313-.062c.08-.043.139-.103.176-.179s.056-.161.056-.257c0-.097-.019-.187-.056-.27s-.096-.15-.176-.201-.185-.076-.313-.076h-.596v2.725h-.67v-3.25h1.266c.254 0 .473.046.654.138.183.091.323.216.42.377s.145.344.145.551c0 .21-.048.391-.145.545s-.237.272-.42.355c-.181.083-.4.125-.654.125zm3.862.636v.522h-1.73v-.522h1.73zm-1.512-2.728v3.25h-.67v-3.25h.67zm1.286 1.324v.509h-1.504v-.509h1.504zm.223-1.324v.525H39.52v-.525h1.728zm1.891 0v3.25h-.667v-3.25h.667zm1 0v.525h-2.652v-.525h2.652zm2.562 2.728v.522h-1.73v-.522h1.73zm-1.511-2.728v3.25h-.67v-3.25h.67zm1.286 1.324v.509h-1.504v-.509h1.504zm.223-1.324v.525h-1.728v-.525h1.728zm.393 0h1.212c.249 0 .462.037.641.112.18.074.318.185.415.33s.145.325.145.538c0 .174-.03.324-.089.449a.842.842 0 0 1-.248.31c-.106.082-.23.147-.373.197l-.212.112h-1.054l-.005-.522h.784c.118 0 .215-.021.292-.062s.135-.1.174-.174a.538.538 0 0 0 .06-.259c0-.104-.019-.194-.058-.27s-.097-.134-.176-.174a.654.654 0 0 0-.297-.06h-.542v2.725h-.67v-3.25zm1.817 3.25-.741-1.449.708-.005.75 1.422v.031h-.717zm2.804-.85a.425.425 0 0 0-.027-.156.295.295 0 0 0-.094-.13c-.046-.04-.111-.08-.194-.118s-.191-.079-.324-.121a4.161 4.161 0 0 1-.42-.161 1.688 1.688 0 0 1-.348-.208.938.938 0 0 1-.237-.279.763.763 0 0 1-.085-.368c0-.135.03-.258.089-.368a.842.842 0 0 1 .25-.286c.107-.08.234-.142.379-.185.147-.043.309-.065.484-.065.24 0 .449.043.627.129s.317.205.415.355c.1.15.15.322.15.516h-.665a.505.505 0 0 0-.06-.25.409.409 0 0 0-.179-.172.634.634 0 0 0-.299-.062.686.686 0 0 0-.29.054.386.386 0 0 0-.174.141.342.342 0 0 0-.058.196c0 .055.013.105.04.15.028.045.07.086.125.125s.123.075.203.109c.08.034.173.068.279.1.177.054.333.114.467.181.135.067.249.142.339.225s.159.178.205.284a.891.891 0 0 1 .069.359.793.793 0 0 1-.322.663 1.101 1.101 0 0 1-.373.176c-.144.04-.306.06-.484.06a1.86 1.86 0 0 1-.475-.062 1.449 1.449 0 0 1-.426-.194c-.126-.086-.228-.196-.304-.33s-.114-.292-.114-.475h.672c0 .101.016.187.047.257s.075.126.132.17a.585.585 0 0 0 .205.094c.08.019.168.029.263.029a.713.713 0 0 0 .286-.049.349.349 0 0 0 .223-.332z"/></svg><svg width="31" height="32" x="96" viewBox="0 0 31 32"><path fill="#212121" d="M29.317 13.732C29.315 6.147 23.165-.001 15.579 0S1.846 6.152 1.847 13.738a13.734 13.734 0 0 0 9.557 13.081.603.603 0 0 0 .475-.058.573.573 0 0 0 .254-.32l3.469-10.994a1.717 1.717 0 0 0-.018-3.434c-.255.001-.507.06-.736.172l-4.582-4.583a.572.572 0 0 0-.809.809l4.58 4.585a1.684 1.684 0 0 0 .481 2.072l-3.305 10.476c-6.531-2.406-9.876-9.651-7.47-16.182s9.651-9.876 16.182-7.47 9.876 9.651 7.47 16.182a12.603 12.603 0 0 1-6.697 7.156l-.357-1.682a.571.571 0 0 0-.94-.308l-3.443 3.074a.573.573 0 0 0 .207.973l4.396 1.403a.572.572 0 0 0 .735-.664l-.351-1.65a13.69 13.69 0 0 0 8.372-12.644zm-13.734-.572a.572.572 0 1 1 0 1.144.572.572 0 0 1 0-1.144zm1.885 13.339 1.96-1.748.541 2.549-2.501-.801z"/><path fill="#2196f3" d="M15.01 2.858v1.145a.572.572 0 1 0 1.144 0V2.858a.572.572 0 1 0-1.144 0zM4.709 13.16a.572.572 0 1 0 0 1.144h1.145a.572.572 0 1 0 0-1.144H4.709zM26.456 14.304a.572.572 0 1 0 0-1.144h-1.145a.572.572 0 1 0 0 1.144h1.145z"/></svg><svg width="32" height="32" x="144" viewBox="0 0 32 32"><path fill="#afb1b8" d="M31.992 32v-.001H32V20.263c0-5.741-1.236-10.164-7.948-10.164-3.227 0-5.392 1.771-6.276 3.449h-.093v-2.913h-6.364v21.364h6.627V21.42c0-2.785.528-5.479 3.977-5.479 3.399 0 3.449 3.179 3.449 5.657v10.401h6.62zM.528 10.636h6.635V32H.528V10.636zM3.843 0C1.722 0 0 1.721 0 3.843s1.721 3.879 3.843 3.879c2.121 0 3.843-1.757 3.843-3.879A3.846 3.846 0 0 0 3.843 0z"/></svg><svg width="32" height="32" x="192" viewBox="0 0 32 32"><path fill="#afb1b8" d="M21.329 5.313h2.921V.225C23.746.156 22.013 0 19.994 0c-4.212 0-7.097 2.649-7.097 7.519V12H8.249v5.688h4.648V32h5.699V17.689h4.46l.708-5.688h-5.169V8.082c.001-1.644.444-2.769 2.735-2.769z"/></svg><svg width="32" height="32" x="240" viewBox="0 0 32 32"><path fill="#afb1b8" d="M32 6.078c-1.19.522-2.458.868-3.78 1.036a6.523 6.523 0 0 0 2.886-3.626 13.11 13.11 0 0 1-4.16 1.588A6.574 6.574 0 0 0 22.154 3c-3.632 0-6.556 2.948-6.556 6.562 0 .52.044 1.02.152 1.496-5.454-.266-10.28-2.88-13.522-6.862a6.605 6.605 0 0 0-.898 3.316 6.57 6.57 0 0 0 2.914 5.452 6.479 6.479 0 0 1-2.964-.808v.072c0 3.188 2.274 5.836 5.256 6.446a6.548 6.548 0 0 1-1.72.216 5.8 5.8 0 0 1-1.242-.112c.85 2.598 3.262 4.508 6.13 4.57a13.182 13.182 0 0 1-8.134 2.798c-.538 0-1.054-.024-1.57-.09A18.469 18.469 0 0 0 10.064 29c12.072 0 18.672-10 18.672-18.668 0-.29-.01-.57-.024-.848A13.087 13.087 0 0 0 32 6.078z"/></svg><svg width="32" height="32" x="288" viewBox="0 0 32 32"><path fill="#afb1b8" d="M31.969 9.408c-.075-1.7-.35-2.869-.744-3.882a7.806 7.806 0 0 0-1.851-2.838A7.867 7.867 0 0 0 26.542.844C25.523.45 24.36.175 22.66.1 20.947.019 20.403 0 16.059 0s-4.888.019-6.595.094c-1.7.075-2.869.35-3.882.744a7.803 7.803 0 0 0-2.838 1.85A7.867 7.867 0 0 0 .9 5.52C.506 6.539.231 7.702.156 9.402c-.081 1.713-.1 2.257-.1 6.601s.019 4.888.094 6.595c.075 1.7.35 2.869.744 3.882a7.895 7.895 0 0 0 1.85 2.838 7.867 7.867 0 0 0 2.832 1.844c1.019.394 2.182.669 3.882.744 1.706.075 2.25.094 6.595.094s4.888-.019 6.595-.094c1.7-.075 2.869-.35 3.882-.744a8.184 8.184 0 0 0 4.682-4.682c.394-1.019.669-2.182.744-3.882.075-1.707.094-2.251.094-6.595s-.006-4.888-.081-6.595zm-2.882 13.065c-.069 1.563-.331 2.407-.55 2.969a5.31 5.31 0 0 1-3.038 3.038c-.563.219-1.413.481-2.969.55-1.688.075-2.194.094-6.464.094s-4.782-.019-6.464-.094c-1.563-.069-2.407-.331-2.969-.55a4.926 4.926 0 0 1-1.838-1.194 4.974 4.974 0 0 1-1.194-1.838c-.219-.563-.481-1.413-.55-2.969-.075-1.688-.094-2.194-.094-6.464s.019-4.782.094-6.464c.069-1.563.331-2.407.55-2.969a4.868 4.868 0 0 1 1.2-1.838A4.974 4.974 0 0 1 6.639 3.55c.563-.219 1.413-.481 2.969-.55 1.688-.075 2.194-.094 6.464-.094 4.276 0 4.782.019 6.464.094 1.563.069 2.407.331 2.969.55a4.914 4.914 0 0 1 1.838 1.194 4.974 4.974 0 0 1 1.194 1.838c.219.563.481 1.413.55 2.969.075 1.688.094 2.194.094 6.464s-.019 4.77-.094 6.458z"/><path fill="#afb1b8" d="M16.059 7.783c-4.538 0-8.22 3.682-8.22 8.22s3.682 8.22 8.22 8.22c4.539 0 8.22-3.682 8.22-8.22s-3.682-8.22-8.22-8.22zm0 13.552a5.333 5.333 0 0 1 0-10.664 5.333 5.333 0 0 1 0 10.664zM26.524 7.458a1.919 1.919 0 1 1-3.838 0 1.919 1.919 0 0 1 3.838 0z"/></svg><svg width="64" height="32" x="336" viewBox="0 0 64 32"><path fill="#afb1b8" d="M32.257 16.601a1.774 1.774 0 0 1-.365-1.201v-1.741c0-.534.121-.939.363-1.217s.658-.416 1.247-.414c.554 0 .947.118 1.179.354.254.301.377.67.349 1.041v.409h-.991v-.414a2.05 2.05 0 0 0-.029-.406.389.389 0 0 0-.142-.241.573.573 0 0 0-.359-.094.607.607 0 0 0-.377.099.463.463 0 0 0-.164.266 2.073 2.073 0 0 0-.039.43v2.113c-.016.204.028.408.127.593.049.063.118.113.198.144s.168.043.256.033a.536.536 0 0 0 .351-.096.422.422 0 0 0 .148-.257c.023-.14.033-.282.031-.423v-.429h.991v.391c.028.387-.093.772-.343 1.094-.228.259-.615.388-1.186.388s-1.001-.138-1.245-.425zM36.382 16.619c-.25-.271-.375-.666-.375-1.188V13.6c0-.517.125-.909.375-1.174s.669-.398 1.255-.397c.583 0 .999.132 1.249.397.25.266.377.657.377 1.174v1.831c0 .517-.127.914-.382 1.186s-.669.409-1.245.409c-.576 0-1.003-.138-1.255-.407zm1.716-.44c.09-.17.13-.356.119-.542v-2.242a1 1 0 0 0-.117-.531c-.05-.064-.12-.115-.202-.146s-.172-.042-.261-.031c-.089-.011-.18 0-.262.031s-.153.082-.204.146a.975.975 0 0 0-.119.531v2.253a.997.997 0 0 0 .119.542c.058.057.129.103.209.134a.709.709 0 0 0 .51 0 .63.63 0 0 0 .209-.134v-.011zM40.455 12.082h1.067l.802 3.378.82-3.378h1.038l.105 4.877h-.767l-.082-3.389-.792 3.389h-.615l-.82-3.402-.076 3.402h-.775l.096-4.877zM45.482 12.082h1.661c.957 0 1.436.462 1.436 1.385 0 .884-.504 1.326-1.512 1.325h-.566v2.167h-1.026l.006-4.877zm1.42 2.084c.101.011.204.003.302-.024s.187-.071.262-.131a.793.793 0 0 0 .148-.551 1.542 1.542 0 0 0-.049-.443c-.015-.048-.04-.094-.075-.134s-.079-.073-.13-.098a1.058 1.058 0 0 0-.457-.078h-.398v1.457h.398zM50.059 12.082h1.101l1.13 4.877h-.956l-.224-1.124h-.983l-.23 1.124h-.97l1.13-4.877zM51 15.269l-.384-2.047-.384 2.047h.767zM53.203 12.082h.718l1.374 2.782v-2.782h.851v4.877h-.683l-1.382-2.904v2.904h-.88l.002-4.877zM58.14 15.099l-1.143-3.01h.962l.697 1.934.654-1.934h.941l-1.128 3.01v1.859h-.984v-1.859zM33.84 19.09v.255h-.837v1.982h-.351v-1.982h-.841v-.255h2.029zM36.464 21.327h-.271a.119.119 0 0 1-.076-.021.122.122 0 0 1-.045-.051l-.242-.531h-1.161l-.242.531a.15.15 0 0 1-.037.06.123.123 0 0 1-.076.021h-.271l1.026-2.236h.357l1.038 2.228zm-1.699-.83h.968l-.41-.91a1.61 1.61 0 0 1-.076-.211l-.039.119-.037.094-.406.908zM38.232 21.108a1.122 1.122 0 0 0 .357-.027 1.246 1.246 0 0 0 .285-.096v-.503h-.41a.082.082 0 0 1-.056-.018c-.007-.005-.012-.011-.016-.018s-.005-.015-.005-.022v-.172h.796v.857a1.528 1.528 0 0 1-.433.182c-.084.021-.17.037-.256.046-.099.01-.199.014-.299.014a1.582 1.582 0 0 1-.517-.083 1.249 1.249 0 0 1-.41-.234 1.09 1.09 0 0 1-.265-.354 1.101 1.101 0 0 1-.094-.464 1.17 1.17 0 0 1 .092-.468c.059-.133.149-.253.265-.354.117-.101.257-.18.41-.232.176-.057.362-.085.55-.083.096 0 .191.006.285.019.083.012.165.031.244.057a1.172 1.172 0 0 1 .383.205l-.098.138a.094.094 0 0 1-.08.043.14.14 0 0 1-.064-.018 1.268 1.268 0 0 1-.101-.053.876.876 0 0 0-.137-.06 1.312 1.312 0 0 0-.189-.05 1.514 1.514 0 0 0-.261-.019c-.135-.001-.27.02-.396.062a.778.778 0 0 0-.493.455 1.043 1.043 0 0 0 0 .746.872.872 0 0 0 .504.459c.13.039.269.054.406.044zM41.501 21.072h1.12v.255h-1.462V19.09h.351l-.008 1.982zM43.786 21.327h-.351V19.09h.351v2.237zM45.091 19.101c.021.01.039.024.053.041l1.499 1.686a.534.534 0 0 1 0-.08v-1.667h.306v2.246h-.176a.164.164 0 0 1-.076-.012.194.194 0 0 1-.055-.043l-1.497-1.684v1.739h-.293V19.09h.183c.02 0 .039.004.057.011zM49.531 19.09v.246h-1.243v.738h1.007v.237h-1.007v.763h1.243v.246h-1.604v-2.231h1.604zM12.777 5.278l15.574 3.818v13.378l-15.574-3.816V5.278zm-.999-1.14v15.17l17.57 4.308V8.447l-17.57-4.31z"/><path fill="#afb1b8" d="M21.195 30.659 3.623 26.347V11.178l17.572 4.31v15.171z"/><path fill="#afb1b8" d="m12.069 5.107 15.371 3.77-6.537 5.645L5.53 10.75l6.539-5.643zm-.291-.969-8.155 7.041 17.572 4.31 8.153-7.041-17.57-4.31zM22.183 29.806l7.165-6.187-7.165-1.758v7.945z"/></svg><svg width="64" height="32" x="432" viewBox="0 0 64 32"><path fill="#afb1b8" d="M16.155 27.062a.863.863 0 0 1 .221.59c.008.14-.019.279-.079.408s-.15.244-.264.337c-.286.198-.64.294-.997.272h-1.753v-3.738H15c.339-.021.675.067.951.248.111.085.199.192.256.314s.084.253.077.386a.823.823 0 0 1-.199.572.945.945 0 0 1-.523.292c.233.039.442.152.592.32zm-2.056-.564h.734a.749.749 0 0 0 .467-.124.418.418 0 0 0 .157-.366c.005-.068-.006-.135-.033-.199s-.069-.12-.123-.167a.756.756 0 0 0-.481-.126h-.722v.981zm1.272 1.434c.059-.047.105-.105.135-.171s.043-.137.038-.208c.004-.072-.009-.144-.04-.211s-.078-.126-.138-.173a.807.807 0 0 0-.499-.135h-.77v1.028h.78a.824.824 0 0 0 .493-.13zM19.665 28.67l-.955-1.461h-.359v1.461h-.822v-3.738h1.556a1.63 1.63 0 0 1 1.083.318c.217.203.349.47.37.754s-.069.565-.254.793a1.297 1.297 0 0 1-.742.38l1.017 1.494h-.894zm-1.314-1.971h.672c.467 0 .7-.189.7-.566.005-.077-.008-.154-.038-.227s-.075-.138-.134-.194a.777.777 0 0 0-.529-.152h-.68l.008 1.138zM24.157 27.917H22.52l-.289.752h-.862l1.504-3.696h.931l1.498 3.696h-.862l-.283-.752zm-.219-.566-.598-1.578-.598 1.578h1.197zM29.78 28.669h-.816l-1.829-2.542v2.542h-.814v-3.738h.814l1.829 2.557v-2.557h.816v3.738zM34.435 27.775a1.702 1.702 0 0 1-.738.659 2.6 2.6 0 0 1-1.147.236h-1.452v-3.738h1.452c.397-.009.791.07 1.147.23.312.144.57.371.738.652a2.024 2.024 0 0 1 0 1.962zm-.934-.09c.233-.248.361-.565.361-.892s-.128-.644-.361-.892a1.503 1.503 0 0 0-1.021-.318h-.566v2.42h.566c.373.021.74-.093 1.021-.318zM24.668 4.138s10.529 3.64 10.306 8.906v8.908s-10.521-3.641-10.302-8.908l-.004-8.906zM44.353 19.867a15.272 15.272 0 0 1 6.69-2.257v-2.789c-2.767.976-5.113 2.747-6.69 5.046z"/><path fill="#afb1b8" d="M43.159 20.707c1.628-3.001 4.449-5.316 7.884-6.47V6.202s-14.995 5.185-14.678 12.685V31.57s.668-.232 1.719-.667c0-.405 0-.814.048-1.225.31-3.482 2.118-6.709 5.026-8.97z"/><path fill="#afb1b8" d="M41.733 25.419c.079-.88.255-1.75.525-2.597-1.811 1.953-2.907 4.377-3.135 6.93-.022.241-.034.482-.04.73a44.638 44.638 0 0 0 2.884-1.392 12.024 12.024 0 0 1-.233-3.672zM42.329 25.465a11.5 11.5 0 0 0 .185 3.326c4.097-2.244 8.7-5.712 8.523-9.904v-.365c-2.927.3-5.665 1.471-7.795 3.335a11.64 11.64 0 0 0-.913 3.609z"/></svg><svg width="64" height="32" x="528" viewBox="0 0 64 32"><path fill="#afb1b8" d="M21.981 29.699c.01 0 .019.002.028.006s.017.008.023.014l.132.126a1.093 1.093 0 0 1-.37.239c-.166.061-.345.09-.525.086a1.399 1.399 0 0 1-.494-.08 1.075 1.075 0 0 1-.372-.226 1.002 1.002 0 0 1-.24-.349 1.154 1.154 0 0 1-.084-.448 1.04 1.04 0 0 1 .345-.798 1.19 1.19 0 0 1 .395-.227c.162-.055.335-.082.509-.08.162-.003.322.021.472.073.13.049.25.117.354.202l-.11.134a.108.108 0 0 1-.028.024.075.075 0 0 1-.044.01.112.112 0 0 1-.048-.014l-.059-.036-.082-.046a.87.87 0 0 0-.26-.08 1.168 1.168 0 0 0-.196-.014 1.071 1.071 0 0 0-.365.06.837.837 0 0 0-.286.169.78.78 0 0 0-.186.269.907.907 0 0 0-.067.355.928.928 0 0 0 .067.36.777.777 0 0 0 .456.434.97.97 0 0 0 .339.057c.067.001.134-.003.201-.011a.796.796 0 0 0 .435-.185.105.105 0 0 1 .063-.023zM25.784 29.066c.002.152-.028.303-.089.445-.054.129-.138.247-.248.345s-.242.176-.389.227a1.6 1.6 0 0 1-1.001 0 1.17 1.17 0 0 1-.387-.227 1 1 0 0 1-.25-.349 1.157 1.157 0 0 1 0-.891 1.04 1.04 0 0 1 .25-.35c.11-.095.242-.17.387-.219a1.573 1.573 0 0 1 1.001 0c.146.052.279.129.388.227a1.031 1.031 0 0 1 .338.793zm-.346 0a.943.943 0 0 0-.063-.358.731.731 0 0 0-.454-.436 1.162 1.162 0 0 0-.728 0 .778.778 0 0 0-.278.169.724.724 0 0 0-.178.267 1.046 1.046 0 0 0 0 .715.724.724 0 0 0 .456.434c.235.076.493.076.728 0a.774.774 0 0 0 .278-.167.748.748 0 0 0 .176-.267.956.956 0 0 0 .063-.358zM28.378 29.441l.035.08a2.03 2.03 0 0 1 .081-.159l.841-1.329c.016-.023.031-.037.048-.041a.228.228 0 0 1 .069-.007h.249v2.161h-.295V28.49a.457.457 0 0 1 0-.074l-.846 1.347c-.011.02-.028.037-.049.049s-.047.018-.072.018h-.048c-.026 0-.051-.006-.072-.018s-.039-.029-.049-.049l-.871-1.356V30.142h-.285v-2.157h.249a.228.228 0 0 1 .069.007c.02.009.037.023.046.041l.859 1.33c.017.025.031.05.043.077zM31.544 29.334v.809h-.329v-2.158h.734c.139-.002.277.014.41.047a.82.82 0 0 1 .29.134c.073.058.13.131.165.212a.647.647 0 0 1 .056.276.594.594 0 0 1-.239.492.833.833 0 0 1-.291.143 1.39 1.39 0 0 1-.397.05l-.398-.006zm0-.232h.398a.906.906 0 0 0 .255-.033.56.56 0 0 0 .184-.093.412.412 0 0 0 .151-.325c.004-.06-.007-.12-.033-.176s-.065-.106-.115-.147a.71.71 0 0 0-.443-.116h-.398v.89zM35.969 30.146h-.26a.119.119 0 0 1-.072-.02.137.137 0 0 1-.043-.05l-.224-.522h-1.124l-.232.522a.12.12 0 0 1-.115.07h-.26l.988-2.161h.342l1.001 2.161zm-1.63-.802h.928l-.392-.88a1.372 1.372 0 0 1-.074-.203l-.038.113a1.634 1.634 0 0 1-.036.092l-.388.878zM37.391 27.995c.02.009.037.023.049.039l1.44 1.629v-1.678h.295v2.161h-.165a.159.159 0 0 1-.068-.013.19.19 0 0 1-.053-.04l-1.439-1.628a.457.457 0 0 1 0 .074v1.606h-.295v-2.161h.175c.02 0 .041.003.059.01zM41.602 29.287v.858h-.329v-.858l-.91-1.302h.295a.119.119 0 0 1 .071.019.17.17 0 0 1 .044.049l.57.84a.813.813 0 0 1 .1.192l.043-.093a.809.809 0 0 1 .056-.099l.561-.845a.233.233 0 0 1 .043-.046.11.11 0 0 1 .071-.021h.298l-.912 1.307zM28.215 24.358c.143.016.288.029.435.04 2.221-.863 4.1-2.276 5.402-4.062s1.969-3.866 1.918-5.98l-2.448-2.127c.498 2.25.265 4.577-.672 6.719s-2.542 4.015-4.635 5.41z"/><path fill="#afb1b8" d="m27.341 24.259.066.011c2.236-1.39 3.941-3.331 4.895-5.571s1.111-4.678.452-6.998l-3.487-3.029c1.41 2.49 1.978 5.277 1.637 8.036s-1.576 5.378-3.563 7.551zM39.166 16.854c-.592 2.322-2.031 4.417-4.102 5.973-.605.457-1.257.864-1.949 1.216 1.687-.431 3.237-1.192 4.531-2.226s2.298-2.312 2.934-3.735l-1.414-1.227z"/><path fill="#afb1b8" d="m38.611 16.512-2.013-1.749c-.038 1.994-.691 3.943-1.89 5.644s-2.9 3.092-4.927 4.029h.01c.452 0 .903-.024 1.352-.07 1.894-.672 3.568-1.741 4.871-3.111s2.196-3 2.598-4.743zM27.632 7.395l-2.402-2.09c-2.147.721-3.994 1.988-5.298 3.636s-2.006 3.599-2.013 5.599c.008 2.21.864 4.354 2.433 6.094s3.76 2.975 6.228 3.511c2.203-2.332 3.493-5.213 3.682-8.225s-.732-5.998-2.63-8.525zM44.16 16.19c-.009-2.622-1.211-5.134-3.345-6.988s-5.025-2.899-8.043-2.906a12.802 12.802 0 0 0-4.078.659l14.705 12.777a8.67 8.67 0 0 0 .761-3.541z"/></svg><svg width="64" height="32" x="624" viewBox="0 0 64 32"><path fill="#afb1b8" d="M30.257 3.636h-.082c-.127-.008-.254-.011-.38-.014h-.275c-.24 0-.484.006-.727.018a.505.505 0 0 0-.055 0 17.08 17.08 0 0 0-6.349 1.62l-.261.126v13.368l.611-.207c.536-.184 1.107-.35 1.698-.504a20.731 20.731 0 0 1 4.888-.649v1.756c-.218.002-.431.008-.643.018h-.05c-1.269.07-2.528.263-3.76.577a19.11 19.11 0 0 0-4.48 1.746V4.346a17.968 17.968 0 0 1 4.7-1.912 17.94 17.94 0 0 1 4.429-.571h.258c.309.008.609.022.892.043.744.052 1.483.17 2.207.352v1.729a13.54 13.54 0 0 0-2.182-.326 5.148 5.148 0 0 0-.437-.025zM33.3 5.403c.383.029.781.043 1.182.043a19.006 19.006 0 0 0 4.657-.597 19.187 19.187 0 0 0 4.478-1.747v16.84c-1.47.856-3.053 1.5-4.701 1.912a18.089 18.089 0 0 1-4.429.57 13.539 13.539 0 0 1-3.36-.396V5.079a13.76 13.76 0 0 0 2.174.325zm8.57.13-.611.206c-.562.189-1.129.358-1.698.508a20.693 20.693 0 0 1-5.075.651c-.399 0-.765-.011-1.12-.034l-.487-.032v13.752l.418.037c.388.034.788.051 1.191.051a16.284 16.284 0 0 0 3.997-.517 16.81 16.81 0 0 0 3.123-1.122l.261-.126V5.534zM21.577 27.351a.9.9 0 0 0-.68-.275.994.994 0 0 0-.392.074.888.888 0 0 0-.502.508.984.984 0 0 0-.07.379v2.291c-.005.161.025.322.09.47a.922.922 0 0 0 .229.307.804.804 0 0 0 .315.163c.111.031.226.047.342.048a.962.962 0 0 0 .948-.964v-.256h-.599v.204a.525.525 0 0 1-.035.204.368.368 0 0 1-.087.129.41.41 0 0 1-.25.087.307.307 0 0 1-.281-.122.543.543 0 0 1-.079-.307v-2.136a.723.723 0 0 1 .073-.342.303.303 0 0 1 .293-.138.317.317 0 0 1 .267.129.485.485 0 0 1 .099.307v.198h.593v-.233a1.1 1.1 0 0 0-.073-.401.928.928 0 0 0-.2-.322zM25.134 27.324a1.07 1.07 0 0 0-.681-.252 1.058 1.058 0 0 0-.357.064.947.947 0 0 0-.548.508c-.06.14-.09.291-.087.444v2.197c-.004.155.026.308.087.45a.886.886 0 0 0 .232.307.928.928 0 0 0 .316.193 1.038 1.038 0 0 0 .714 0c.119-.043.229-.109.324-.193a.938.938 0 0 0 .226-.307c.061-.142.091-.295.087-.45v-2.197a1.076 1.076 0 0 0-.087-.444.99.99 0 0 0-.226-.321zm-.279 2.962a.387.387 0 0 1-.119.317.441.441 0 0 1-.564 0 .389.389 0 0 1-.119-.317v-2.197a.387.387 0 0 1 .119-.317.441.441 0 0 1 .564 0 .389.389 0 0 1 .119.317v2.197zM29.807 31.267v-4.159h-.576l-.756 2.202h-.011l-.762-2.202h-.57v4.159h.594v-2.53h.011l.582 1.789h.296l.587-1.789h.011v2.53h.594zM33.182 27.4a.82.82 0 0 0-.336-.227 1.314 1.314 0 0 0-.431-.064h-.883v4.159h.593v-1.624h.305a1.09 1.09 0 0 0 .535-.114.863.863 0 0 0 .325-.318.989.989 0 0 0 .136-.362 3 3 0 0 0 .032-.473c.006-.2-.014-.399-.058-.594a.896.896 0 0 0-.218-.382zm-.305 1.268a.523.523 0 0 1-.055.216.333.333 0 0 1-.153.146.613.613 0 0 1-.28.052h-.27v-1.414h.305a.558.558 0 0 1 .267.052c.061.035.11.089.139.154.032.073.05.152.052.232v.276c0 .096.006.197 0 .286h-.006zM35.99 27.108h-.486l-.916 4.159h.593l.174-.894h.808l.174.894h.593l-.939-4.159zm-.547 2.699.292-1.508h.011l.29 1.508h-.593zM39.819 29.614h-.011l-.895-2.506h-.57v4.159h.593v-2.501h.012l.906 2.501h.557v-4.159h-.593v2.506zM43.44 27.108l-.477 1.654h-.012l-.477-1.654h-.628l.814 2.401v1.758h.593v-1.758l.814-2.401h-.628z"/></svg><svg width="64" height="32" y="48" viewBox="0 0 64 32"><path fill="#afb1b8" d="m22.943 4.279 4.231 4.005-7.854-.005v19.434h20.528v-7.43l4.226 4.001V4.279H22.942zm16.72 15.534L27.666 8.456h11.997v11.357zm-3.725 5.058H22.569v-13.07h.945v12.185h12.424v.885zm-10.212 5.43-.494 1.017-.494-1.017h-.414l.721 1.356v.79h.374v-.79l.719-1.356h-.413zm.621 2.146.174-.5h.831l.175.5h.389l-.812-2.146h-.335l-.811 2.146h.388zm.589-1.69.311.89h-.622l.311-.89zm1.967.838a.488.488 0 0 0-.081.273c0 .181.063.328.19.441.128.112.298.168.51.168s.395-.057.548-.172l.121.143h.416l-.315-.373c.124-.169.186-.386.186-.65h-.311c0 .144-.03.276-.09.394l-.414-.489.146-.106c.103-.075.177-.149.223-.224s.068-.158.068-.248a.44.44 0 0 0-.15-.34.541.541 0 0 0-.383-.139c-.173 0-.311.049-.413.147s-.153.23-.153.398c0 .069.016.14.049.214s.092.163.175.268a1.277 1.277 0 0 0-.32.296zm.968.475a.544.544 0 0 1-.339.121c-.107 0-.193-.031-.256-.093s-.096-.142-.096-.242c0-.115.059-.217.177-.307l.046-.032.469.553zm-.385-.951c-.101-.125-.152-.228-.152-.311 0-.072.021-.131.062-.178s.097-.071.167-.071c.065 0 .118.02.161.06s.063.087.063.143c0 .084-.03.154-.091.208l-.046.037-.164.112zm3.494 1.166a.783.783 0 0 0 .254-.537h-.371c-.02.153-.066.263-.14.329s-.184.099-.33.099c-.16 0-.282-.061-.366-.183s-.124-.299-.124-.531v-.19c.002-.229.046-.402.133-.52a.435.435 0 0 1 .374-.178c.14 0 .245.034.317.103.073.068.118.179.136.333h.371c-.024-.235-.108-.417-.252-.545s-.335-.193-.572-.193a.871.871 0 0 0-.466.125c-.134.084-.236.202-.308.357s-.108.333-.108.535v.201c.003.198.04.371.111.52s.171.265.301.346a.843.843 0 0 0 .453.121c.245 0 .441-.064.588-.192zm2.192-.301c.073-.159.109-.344.109-.554v-.119c-.001-.209-.038-.393-.112-.55a.829.829 0 0 0-.778-.49.86.86 0 0 0-.466.128c-.135.084-.239.207-.314.367s-.111.345-.111.554v.121c.001.205.038.387.112.544s.18.279.315.364a.873.873 0 0 0 .466.127.855.855 0 0 0 .466-.127.828.828 0 0 0 .313-.366zm-.4-1.213c.09.127.136.309.136.547v.112c0 .242-.045.426-.134.551s-.215.189-.38.189c-.163 0-.291-.064-.383-.193s-.137-.311-.137-.547v-.124c.002-.231.048-.409.139-.535a.44.44 0 0 1 .379-.19.44.44 0 0 1 .382.19z"/></svg><svg width="32" height="32" x="96" y="48" viewBox="0 0 32 32"><path fill="#2196f3" d="M31.974 4.524a.534.534 0 0 0-.43-.363l-1.91-.278-.855-1.731c-.179-.365-.777-.365-.956 0l-.855 1.731-1.91.278a.535.535 0 0 0-.296.91l1.383 1.348-.326 1.903c-.034.2.048.402.212.522a.53.53 0 0 0 .562.04l1.709-.899 1.709.899a.536.536 0 0 0 .775-.563l-.326-1.903 1.383-1.348a.536.536 0 0 0 .135-.547zm-2.463 1.327a.534.534 0 0 0-.153.472l.191 1.114-1-.526a.533.533 0 0 0-.498 0l-1.001.526.191-1.114a.534.534 0 0 0-.153-.472l-.81-.789 1.119-.163a.532.532 0 0 0 .402-.292l.5-1.013.5 1.013a.535.535 0 0 0 .402.292l1.119.163-.809.789zM26.134 20.522h-1.067v1.067h1.067v-1.067zM26.134 22.656h-1.067v1.067h1.067v-1.067zM27.2 21.589h-1.067v1.067H27.2v-1.067zM25.067 21.589H24v1.067h1.067v-1.067zM22.4 26.389h-1.067v1.067H22.4v-1.067zM22.4 28.522h-1.067v1.067H22.4v-1.067zM23.467 27.456H22.4v1.067h1.067v-1.067zM21.333 27.456h-1.067v1.067h1.067v-1.067zM16 24.256h-1.067v1.067H16v-1.067zM16 26.389h-1.067v1.067H16v-1.067zM17.067 25.322H16v1.067h1.067v-1.067zM14.933 25.322h-1.067v1.067h1.067v-1.067zM5.867 6.122H4.8v1.067h1.067V6.122zM5.867 8.255H4.8v1.067h1.067V8.255z"/><path fill="#2196f3" d="M6.933 7.189H5.866v1.067h1.067V7.189zM4.8 7.189H3.733v1.067H4.8V7.189z"/><path fill="#212121" d="M24.715 14.159a1.775 1.775 0 0 0-1.188-.705 1.778 1.778 0 0 0-1.34.352l-1.252.96-1.898 1.417-1.358-.541c2.421-1.086 4.114-3.508 4.114-6.32 0-3.823-3.123-6.933-6.961-6.933s-6.961 3.11-6.961 6.933a6.86 6.86 0 0 0 1.12 3.758l-2.764-.024h-.005c-.009 0-.015.004-.023.005a.515.515 0 0 0-.155.031l-.038.013c-.006.003-.013.003-.019.006l-3.233 1.596-.001.001-1.893.911a.397.397 0 0 0-.063.035 1.779 1.779 0 0 0-.598 2.295c.22.429.595.745 1.056.889a1.776 1.776 0 0 0 1.378-.128l1.388-.738 2.264-1.169 1.357-.008L2.2 22.211l-.002.001-1.339 1.333c-.316.315-.49.732-.49 1.178s.174.863.49 1.179c.325.323.752.485 1.179.485s.854-.162 1.18-.485l1.314-1.309 1.741-1.3.901.897-1.762 1.754-.002.001-1.339 1.333c-.316.315-.49.732-.49 1.178s.174.863.49 1.179c.325.323.753.485 1.18.485s.855-.162 1.18-.485l3.482-3.467.001-.002 1.01-1-.004-.004c.006-.006.015-.009.022-.015l5.166-5.658 3.471.494a.52.52 0 0 0 .262-.033c.018-.006.033-.015.05-.023.019-.01.039-.015.058-.027l3.213-2.133c.012-.008.018-.021.029-.029.013-.01.029-.014.041-.026l1.271-1.191c.662-.62.753-1.635.212-2.362zM2.13 17.77a.714.714 0 0 1-.558.052.717.717 0 0 1-.213-1.26l1.314-.632.449 1.312-.992.528zm3.498-1.828-1.548.8-.439-1.283 2.027-1.001-.04 1.484zm15.099-6.62a5.79 5.79 0 0 1-.599 2.559l-4.181-1.899a1.863 1.863 0 0 0-.788-1.388l1.464-4.86c2.378.756 4.105 2.974 4.105 5.588zm-11.789 0c0-3.235 2.644-5.867 5.894-5.867.253 0 .5.021.745.052l-1.432 4.754c-.019-.001-.037-.006-.057-.006-1.033 0-1.873.837-1.873 1.867s.84 1.867 1.873 1.867c.694 0 1.294-.383 1.618-.945l3.862 1.755a5.894 5.894 0 0 1-4.737 2.39c-3.25 0-5.894-2.632-5.894-5.867zm5.956.8c0 .441-.362.8-.806.8s-.806-.359-.806-.8c0-.441.362-.8.806-.8s.806.359.806.8zM2.465 25.146a.608.608 0 0 1-.854.001.592.592 0 0 1 0-.844l.962-.958.851.848-.959.955zm3.214 3.734a.608.608 0 0 1-.855.001.592.592 0 0 1 0-.844l.963-.959.852.848-.96.955zm3.481-3.469-.002.001-1.765 1.76-.852-.848 1.763-1.755.002-.001c.04-.04.065-.088.09-.135.007-.014.02-.026.026-.04.017-.041.019-.085.026-.129.003-.025.014-.047.014-.073 0-.036-.013-.07-.02-.106-.006-.032-.006-.065-.019-.095a.55.55 0 0 0-.091-.138c-.01-.012-.014-.027-.025-.038h-.001l-.001-.002-1.607-1.6c-.017-.017-.039-.024-.058-.038a.507.507 0 0 0-.087-.058.515.515 0 0 0-.093-.033.507.507 0 0 0-.103-.02.5.5 0 0 0-.095.005.53.53 0 0 0-.104.02.477.477 0 0 0-.094.045c-.02.011-.042.015-.061.029L4.23 23.486l-.901-.897 2.399-2.386 4.361 4.289-.928.919zm6.819-7.017c-.015-.002-.03.004-.045.003a.556.556 0 0 0-.3.075.492.492 0 0 0-.083.061c-.013.011-.028.017-.04.029l-4.698 5.146-4.328-4.257 2.833-2.818a.534.534 0 0 0-.379-.911v-.001l-2.219.013.028-1.607 3.104.027a6.947 6.947 0 0 0 4.981 2.101c.437 0 .864-.045 1.279-.123.04.032.079.065.13.085l2.41.96.152.758.178.885-3.003-.427zm4.041.178-.313-1.558 1.446-1.08.947 1.257-2.08 1.381zm3.754-2.831-.838.785-.931-1.236.831-.637a.735.735 0 0 1 .543-.143.718.718 0 0 1 .48.284.713.713 0 0 1-.085.947z"/><path fill="#212121" d="m13.602 18.544-2.143-2.133a.534.534 0 0 0-.753 0l-2.142 2.133a.537.537 0 0 0 0 .756l2.142 2.133a.536.536 0 0 0 .753 0l2.143-2.133a.535.535 0 0 0 0-.756zm-2.519 1.759-1.387-1.381 1.387-1.381 1.387 1.381-1.387 1.381zM17.164 5.071l-.258 1.036c.071.018 1.738.452 1.738 2.149h1.067c0-2.017-1.666-2.965-2.547-3.185zM19.711 9.322h-1.067v1.067h1.067V9.322z"/></svg><svg width="32" height="32" x="144" y="48" viewBox="0 0 32 32"><path fill="#2196f3" d="M14.926 14.965h1.066v4.798h-1.066v-4.797zM19.19 17.097h1.066v2.665H19.19v-2.665zM10.661 18.696h1.066v1.066h-1.066v-1.066zM7.463 18.163h1.066v1.599H7.463v-1.599z"/><path fill="#212121" d="M1.599 28.291h25.587a1.6 1.6 0 0 0 1.599-1.599V24.56a1.6 1.6 0 0 0-1.599-1.599h-.533V9.668L29.681 6.8a1.608 1.608 0 1 0-.746-.763L26.654 8.2V6.97a1.6 1.6 0 0 0-1.599-1.599H3.733A1.6 1.6 0 0 0 2.134 6.97v15.992h-.533a1.6 1.6 0 0 0-1.599 1.599v2.132a1.6 1.6 0 0 0 1.599 1.599zM30.384 4.837a.533.533 0 1 1 0 1.067.533.533 0 0 1 0-1.067zM3.198 6.969c0-.294.239-.533.533-.533h21.322c.294 0 .533.239.533.533v2.239l-1.066 1.013V8.035a.533.533 0 0 0-.533-.533H4.797a.533.533 0 0 0-.533.533v13.326c0 .294.239.533.533.533h19.19a.533.533 0 0 0 .533-.533v-9.674l1.066-1.01v12.284H3.198V6.969zm4.798 6.93a1.598 1.598 0 1 0 1.107 2.749l1.853.93a.532.532 0 0 0 .636-.123l3.939-4.431 3.872 2.901a.533.533 0 0 0 .686-.039l3.365-3.188v8.131H5.33V8.569h18.124v2.66l-3.771 3.572-3.904-2.927a.533.533 0 0 0-.718.072l-3.993 4.493-1.493-.746c.011-.064.018-.129.02-.193a1.6 1.6 0 0 0-1.599-1.599zm.533 1.599a.533.533 0 1 1-1.067 0 .533.533 0 0 1 1.067 0zm3.198 8.529h5.331v.533a.533.533 0 0 1-.533.533h-4.264a.533.533 0 0 1-.533-.533v-.533zm-10.661.533c0-.294.239-.533.533-.533h9.062v.533a1.6 1.6 0 0 0 1.599 1.599h4.264a1.6 1.6 0 0 0 1.599-1.599v-.533h9.062c.294 0 .533.239.533.533v2.132a.533.533 0 0 1-.533.533H1.598a.533.533 0 0 1-.533-.533V24.56z"/></svg><svg width="32" height="32" x="192" y="48" viewBox="0 0 32 32"><path fill="#212121" d="m30.773 22.098-8.443-8.505.937-4.615c.242.094.499.144.758.146h.006a2.159 2.159 0 1 0-2.008-1.435l-4.96.605L8.972.161a.534.534 0 0 0-.377-.16.532.532 0 0 0-.373.155L6.709 1.66a.534.534 0 0 0 0 .754l.814.826a14.943 14.943 0 0 0 2.519 17.663.513.513 0 0 0 .146.098c-.034.18-.051.364-.052.547v6.187h-6.4a2.67 2.67 0 0 0-2.667 2.667v1.067c0 .295.239.533.533.533h24.533a.533.533 0 0 0 .533-.533v-1.067a2.67 2.67 0 0 0-2.667-2.667h-6.4v-2.742a15.09 15.09 0 0 0 3.049.32 14.854 14.854 0 0 0 7.04-1.783l.818.823a.534.534 0 0 0 .377.16.532.532 0 0 0 .373-.155l1.513-1.504a.534.534 0 0 0 0-.754zM23.28 6.233a1.066 1.066 0 1 1 .752 1.822h-.003a1.067 1.067 0 0 1-.747-1.823h-.002zm-1.256 3.505-.598 2.946-1.175-1.182 1.774-1.763zm-.605-.902-1.92 1.909-1.485-1.493 3.405-.415zM24.004 28.8a1.6 1.6 0 0 1 1.6 1.6v.533H2.137V30.4a1.6 1.6 0 0 1 1.6-1.6h20.267zm-7.467-2.133v1.067h-5.333v-1.067h5.333zM11.204 25.6v-4.053c0-1.294 1.196-2.347 2.667-2.347s2.667 1.053 2.667 2.347V25.6h-5.333zm6.4-1.696v-2.357c0-1.882-1.675-3.413-3.733-3.413a3.8 3.8 0 0 0-3.281 1.786A13.87 13.87 0 0 1 8.311 4.033l18.602 18.708a13.818 13.818 0 0 1-9.309 1.163zm11.289-.684L7.836 2.039l.755-.752 7.935 7.98c.004 0 .006.007.01.01l13.115 13.191-.757.752z"/><path fill="#2196f3" d="M13.876 20.267h-.005a1.6 1.6 0 1 0-.004 3.2h.005a1.6 1.6 0 1 0 .004-3.2zm.373 1.978a.534.534 0 0 1-.752-.756.534.534 0 0 1 .373-.155.532.532 0 0 1 .373.911h.005z"/></svg><svg width="20" height="32" x="240" y="48" viewBox="0 0 20 32"><path fill="#757575" d="M17 0H3C1.346 0 0 1.346 0 3v26c0 1.654 1.346 3 3 3h14c1.654 0 3-1.346 3-3V3c0-1.654-1.346-3-3-3zM3 2h14a1 1 0 0 1 1 1v21H2V3a1 1 0 0 1 1-1zm14 28H3a1 1 0 0 1-1-1v-3h16v3a1 1 0 0 1-1 1z"/><path fill="#757575" d="M4.707 27.478c.391.365.391.956 0 1.321s-1.024.365-1.414 0c-.391-.365-.391-.956 0-1.321s1.024-.365 1.414 0z"/></svg><svg width="43" height="32" x="288" y="48" viewBox="0 0 43 32"><path fill="#2196f3" d="M38.667 0H4C1.794 0 0 1.794 0 4v24c0 2.206 1.794 4 4 4h34.667c2.206 0 4-1.794 4-4V4c0-2.206-1.794-4-4-4zm0 2.667c.181 0 .353.038.511.103L21.334 18.236 3.49 2.77a1.32 1.32 0 0 1 .511-.103h34.667zm0 26.666H4A1.334 1.334 0 0 1 2.667 28V5.587L20.46 21.008a1.335 1.335 0 0 0 1.748 0L40.001 5.587V28c0 .736-.598 1.333-1.333 1.333z"/></svg></svg>